<svg width="203" height="185" viewBox="0 0 203 185" fill="none" xmlns="http://www.w3.org/2000/svg">
<rect width="203" height="185" fill="#323D58"/>
<path d="M67.3789 90.8711C74.918 92.6289 80.2109 94.7578 83.2578 97.2578C87.6328 100.812 89.8203 105.422 89.8203 111.086C89.8203 117.062 87.418 122.004 82.6133 125.91C76.7148 130.637 68.1406 133 56.8906 133H16.5195V130.832C20.1914 130.832 22.6719 130.5 23.9609 129.836C25.2891 129.133 26.207 128.234 26.7148 127.141C27.2617 126.047 27.5352 123.352 27.5352 119.055V67.4922C27.5352 63.1953 27.2617 60.5 26.7148 59.4062C26.207 58.2734 25.2891 57.375 23.9609 56.7109C22.6328 56.0469 20.1523 55.7148 16.5195 55.7148V53.5469H54.6055C63.707 53.5469 70.1523 54.3672 73.9414 56.0078C77.7305 57.6094 80.7188 60.0313 82.9062 63.2734C85.0938 66.4766 86.1875 69.8945 86.1875 73.5273C86.1875 77.3555 84.8008 80.7734 82.0273 83.7812C79.2539 86.75 74.3711 89.1133 67.3789 90.8711ZM46.0508 89.2891C51.5977 89.2891 55.6797 88.6641 58.2969 87.4141C60.9531 86.1641 62.9844 84.4062 64.3906 82.1406C65.7969 79.875 66.5 76.9844 66.5 73.4688C66.5 69.9531 65.7969 67.082 64.3906 64.8555C63.0234 62.5898 61.0508 60.8711 58.4727 59.6992C55.8945 58.5273 51.7539 57.9609 46.0508 58V89.2891ZM46.0508 93.8594V119.348L45.9922 122.277C45.9922 124.387 46.5195 125.988 47.5742 127.082C48.668 128.137 50.2695 128.664 52.3789 128.664C55.5039 128.664 58.375 127.98 60.9922 126.613C63.6484 125.207 65.6797 123.195 67.0859 120.578C68.4922 117.922 69.1953 114.973 69.1953 111.73C69.1953 108.02 68.3359 104.699 66.6172 101.77C64.8984 98.8008 62.5352 96.7305 59.5273 95.5586C56.5195 94.3867 52.0273 93.8203 46.0508 93.8594ZM176.832 51.7305V79.7383H174.664C172.047 72.082 168.121 66.2617 162.887 62.2773C157.652 58.293 151.93 56.3008 145.719 56.3008C139.781 56.3008 134.84 57.9805 130.895 61.3398C126.949 64.6602 124.156 69.3086 122.516 75.2852C120.875 81.2617 120.055 87.3945 120.055 93.6836C120.055 101.301 120.953 107.98 122.75 113.723C124.547 119.465 127.438 123.684 131.422 126.379C135.445 129.074 140.211 130.422 145.719 130.422C147.633 130.422 149.586 130.227 151.578 129.836C153.609 129.406 155.68 128.801 157.789 128.02V111.496C157.789 108.371 157.574 106.359 157.145 105.461C156.715 104.523 155.816 103.684 154.449 102.941C153.121 102.199 151.5 101.828 149.586 101.828H147.535V99.6602H186.148V101.828C183.219 102.023 181.168 102.434 179.996 103.059C178.863 103.645 177.984 104.641 177.359 106.047C177.008 106.789 176.832 108.605 176.832 111.496V128.02C171.754 130.285 166.461 131.984 160.953 133.117C155.484 134.289 149.801 134.875 143.902 134.875C136.363 134.875 130.094 133.859 125.094 131.828C120.133 129.758 115.738 127.062 111.91 123.742C108.121 120.383 105.152 116.613 103.004 112.434C100.27 107.043 98.9023 101.008 98.9023 94.3281C98.9023 82.375 103.102 72.2773 111.5 64.0352C119.898 55.793 130.465 51.6719 143.199 51.6719C147.145 51.6719 150.699 51.9844 153.863 52.6094C155.582 52.9219 158.355 53.8203 162.184 55.3047C166.051 56.75 168.336 57.4727 169.039 57.4727C170.133 57.4727 171.148 57.082 172.086 56.3008C173.023 55.4805 173.883 53.957 174.664 51.7305H176.832Z" fill="#FFDEB6"/>
</svg>
