<?xml version="1.0" encoding="UTF-8" standalone="no"?>
<svg
   xmlns:dc="http://purl.org/dc/elements/1.1/"
   xmlns:cc="http://creativecommons.org/ns#"
   xmlns:rdf="http://www.w3.org/1999/02/22-rdf-syntax-ns#"
   xmlns:svg="http://www.w3.org/2000/svg"
   xmlns="http://www.w3.org/2000/svg"
   xmlns:sodipodi="http://sodipodi.sourceforge.net/DTD/sodipodi-0.dtd"
   xmlns:inkscape="http://www.inkscape.org/namespaces/inkscape"
   viewBox="0 0 1000 209.03579"
   height="209.0358"
   width="1000"
   xml:space="preserve"
   version="1.1"
   id="svg2"
   inkscape:version="0.48.5 r10040"
   sodipodi:docname="A.svg"><sodipodi:namedview
     pagecolor="#ffffff"
     bordercolor="#666666"
     borderopacity="1"
     objecttolerance="10"
     gridtolerance="10"
     guidetolerance="10"
     inkscape:pageopacity="0"
     inkscape:pageshadow="2"
     inkscape:window-width="1049"
     inkscape:window-height="1030"
     id="namedview57"
     showgrid="false"
     fit-margin-left="0.5"
     fit-margin-bottom="0.5"
     fit-margin-top="0.5"
     fit-margin-right="0.5"
     inkscape:zoom="0.57283252"
     inkscape:cx="541.89345"
     inkscape:cy="-140.14738"
     inkscape:window-x="865"
     inkscape:window-y="-10"
     inkscape:window-maximized="0"
     inkscape:current-layer="svg2" /><metadata
     id="metadata8"><rdf:RDF><cc:Work
         rdf:about=""><dc:format>image/svg+xml</dc:format><dc:type
           rdf:resource="http://purl.org/dc/dcmitype/StillImage" /><dc:title></dc:title></cc:Work></rdf:RDF></metadata><defs
     id="defs6"><clipPath
       id="clipPath18"
       clipPathUnits="userSpaceOnUse"><path
         id="path20"
         d="M 0,86 359,86 359,0 0,0 0,86 z"
         inkscape:connector-curvature="0" /></clipPath><clipPath
       id="clipPath18-1"
       clipPathUnits="userSpaceOnUse"><path
         inkscape:connector-curvature="0"
         id="path20-7"
         d="m 0,287.5 304,0 L 304,0 0,0 0,287.5 z" /></clipPath><clipPath
       clipPathUnits="userSpaceOnUse"
       id="clipPath3532"><path
         inkscape:connector-curvature="0"
         d="m 181,6 71,0 0,15 -71,0 0,-15 z"
         id="path3534" /></clipPath><clipPath
       clipPathUnits="userSpaceOnUse"
       id="clipPath3536"><path
         inkscape:connector-curvature="0"
         d="m 180.2,5.32156 71.99,0 0,16.57444 -71.99,0 0,-16.57444 z"
         id="path3538" /></clipPath></defs><g
     style="fill:#000000;fill-opacity:1"
     id="g3644"
     clip-path="url(#clipPath3532)"
     transform="matrix(14.273468,0,0,-14.273468,-2585.8495,298.76124)"><g
       style="fill:#000000;fill-opacity:1"
       id="g3646" /><g
       style="fill:#000000;fill-opacity:1"
       id="g3648"><g
         style="fill:#000000;fill-opacity:1"
         id="g3650"
         clip-path="url(#clipPath3536)"><path
           inkscape:connector-curvature="0"
           id="path3652"
           style="fill:#000000;fill-opacity:1;fill-rule:nonzero;stroke:none"
           d="m 193.4838,17.0217 c -2.103,0 -3.622,-1.608 -3.622,-3.705 0,-2.097 1.519,-3.706 3.622,-3.706 2.103,0 3.622,1.609 3.622,3.706 0,2.097 -1.519,3.705 -3.622,3.705 m 0,-6.525 c -1.413,0 -2.133,1.23 -2.133,2.82 0,1.589 0.72,2.82 2.133,2.82 1.413,0 2.133,-1.231 2.133,-2.82 0,-1.59 -0.72,-2.82 -2.133,-2.82" /><path
           inkscape:connector-curvature="0"
           id="path3654"
           style="fill:#000000;fill-opacity:1;fill-rule:nonzero;stroke:none"
           d="m 214.4767,10.7904 c -0.174,-0.107 -0.386,-0.174 -0.508,-0.174 -0.195,0 -0.294,0.101 -0.294,0.398 l 0,3.381 c 0,1.613 -0.999,2.626 -2.792,2.626 -1.637,0 -2.691,-0.781 -2.691,-1.665 0,-0.413 0.281,-0.702 0.675,-0.702 0.368,0 0.608,0.181 0.809,0.713 0.215,0.571 0.497,0.801 1.28,0.801 0.896,0 1.332,-0.477 1.332,-1.453 l 0,-0.621 c -3.219,-0.13 -4.467,-1.069 -4.467,-2.464 0,-1.235 0.938,-2.01 2.287,-2.01 0.843,0 1.679,0.39 2.255,1.028 0.125,-0.645 0.595,-0.936 1.262,-0.936 0.364,0 0.789,0.149 1.194,0.5 l -0.342,0.578 z m -4.035,-0.178 c -0.654,0 -1.099,0.424 -1.099,1.077 0,0.886 0.863,1.491 2.945,1.636 l 0,-1.673 c -0.489,-0.679 -1.239,-1.04 -1.846,-1.04" /><path
           inkscape:connector-curvature="0"
           id="path3656"
           style="fill:#000000;fill-opacity:1;fill-rule:nonzero;stroke:none"
           d="m 235.1304,18.2269 c 0.381,0.218 0.693,0.417 0.818,0.523 0.366,0.307 0.407,0.692 0.161,0.986 -0.247,0.293 -0.633,0.32 -0.999,0.013 -0.126,-0.105 -0.377,-0.377 -0.657,-0.715 l -0.975,-1.186 0.315,-0.375 1.337,0.754 z" /><path
           inkscape:connector-curvature="0"
           id="path3658"
           style="fill:#000000;fill-opacity:1;fill-rule:nonzero;stroke:none"
           d="m 234.4512,10.6149 c -1.399,0 -2.195,0.959 -2.195,2.701 0,0.084 0.004,0.164 0.007,0.245 l 4.878,0 0,0.486 c 0,1.615 -1.179,2.975 -3.02,2.975 -1.9,0 -3.354,-1.676 -3.354,-3.706 0,-2.253 1.362,-3.704 3.503,-3.704 1.192,0 2.277,0.574 3.11,1.603 l -0.536,0.555 c -0.754,-0.765 -1.533,-1.155 -2.393,-1.155 m -0.33,5.528 c 0.926,0 1.54,-0.66 1.572,-1.761 l -3.318,0 c 0.26,1.1 0.928,1.761 1.746,1.761" /><path
           inkscape:connector-curvature="0"
           id="path3660"
           style="fill:#000000;fill-opacity:1;fill-rule:nonzero;stroke:none"
           d="m 240.4561,10.6245 c -0.419,0 -0.605,0.168 -0.605,0.673 l 0,4.73 1.991,0 0,0.799 -1.991,0 0,2.692 -0.711,0 c -0.203,-2.195 -0.613,-2.618 -1.826,-2.765 l 0,-0.726 1.151,0 0,-4.769 c 0,-1.106 0.628,-1.646 1.697,-1.646 0.739,0 1.441,0.35 2.06,1.022 l -0.527,0.578 c -0.43,-0.377 -0.919,-0.588 -1.239,-0.588" /><path
           inkscape:connector-curvature="0"
           id="path3662"
           style="fill:#000000;fill-opacity:1;fill-rule:nonzero;stroke:none"
           d="m 244.3857,18.0302 c 0.51,0 0.924,0.414 0.924,0.924 0,0.51 -0.414,0.924 -0.924,0.924 -0.51,0 -0.924,-0.414 -0.924,-0.924 0,-0.51 0.414,-0.924 0.924,-0.924" /><path
           inkscape:connector-curvature="0"
           id="path3664"
           style="fill:#000000;fill-opacity:1;fill-rule:nonzero;stroke:none"
           d="m 204.3325,11.7004 0,2.807 c 0,1.594 -0.907,2.514 -2.362,2.514 -0.933,0 -1.783,-0.479 -2.425,-1.285 l 0,1.218 -2.507,-0.192 0,-0.67 c 1.085,-0.078 1.194,-0.187 1.194,-1.224 l 0,-3.168 c 0,-1.037 -0.109,-1.146 -1.194,-1.224 l 0,-0.67 3.756,0 0,0.67 c -1.085,0.078 -1.175,0.187 -1.175,1.224 l 0,3.051 c 0.631,0.792 1.41,1.253 2.034,1.253 0.856,0 1.292,-0.489 1.292,-1.576 l 0,-2.728 c 0,-1.037 -0.089,-1.146 -1.175,-1.224 l 0,-0.67 3.757,0 0,0.67 c -1.086,0.078 -1.195,0.187 -1.195,1.224" /><path
           inkscape:connector-curvature="0"
           id="path3666"
           style="fill:#000000;fill-opacity:1;fill-rule:nonzero;stroke:none"
           d="m 218.8435,17.0222 c -0.874,0 -1.645,-0.408 -2.142,-1.031 l 0,0.963 -2.507,-0.192 0,-0.67 c 1.086,-0.078 1.195,-0.187 1.195,-1.224 l 0,-6.653 c 0,-1.037 -0.109,-1.146 -1.195,-1.224 l 0,-0.67 4,0 0,0.67 c -1.269,0.096 -1.418,0.187 -1.418,1.224 l 0,2.156 c 0.574,-0.509 1.316,-0.76 2.132,-0.76 1.975,0 3.331,1.709 3.331,3.705 0,2.101 -1.436,3.706 -3.396,3.706 m -0.244,-6.415 c -0.691,0 -1.315,0.298 -1.823,0.842 l 0,3.575 c 0.467,0.623 1.165,1.002 1.791,1.002 1.308,0 2.184,-0.975 2.184,-2.71 0,-1.764 -0.909,-2.709 -2.152,-2.709" /><path
           inkscape:connector-curvature="0"
           id="path3668"
           style="fill:#000000;fill-opacity:1;fill-rule:nonzero;stroke:none"
           d="m 245.079,11.7004 0,5.254 -2.582,-0.192 0,-0.67 c 1.086,-0.078 1.195,-0.187 1.195,-1.224 l 0,-3.168 c 0,-1.037 -0.109,-1.146 -1.195,-1.224 l 0,-0.67 3.758,0 0,0.67 c -1.086,0.078 -1.176,0.187 -1.176,1.224" /><path
           inkscape:connector-curvature="0"
           id="path3670"
           style="fill:#000000;fill-opacity:1;fill-rule:nonzero;stroke:none"
           d="m 226.751,17.0222 c -0.874,0 -1.645,-0.408 -2.142,-1.031 l 0,0.963 -2.507,-0.192 0,-0.67 c 1.086,-0.078 1.195,-0.187 1.195,-1.224 l 0,-6.653 c 0,-1.037 -0.109,-1.146 -1.195,-1.224 l 0,-0.67 4,0 0,0.67 c -1.269,0.096 -1.418,0.187 -1.418,1.224 l 0,2.156 c 0.574,-0.509 1.316,-0.76 2.132,-0.76 1.975,0 3.331,1.709 3.331,3.705 0,2.101 -1.436,3.706 -3.396,3.706 m -0.244,-6.415 c -0.691,0 -1.315,0.298 -1.823,0.842 l 0,3.575 c 0.467,0.623 1.165,1.002 1.791,1.002 1.308,0 2.184,-0.975 2.184,-2.71 0,-1.764 -0.909,-2.709 -2.152,-2.709" /><path
           inkscape:connector-curvature="0"
           id="path3672"
           style="fill:#000000;fill-opacity:1;fill-rule:nonzero;stroke:none"
           d="m 185.8458,17.0222 c -0.822,0 -1.559,-0.346 -2.064,-0.93 l 0,4.804 -2.582,-0.16 0,-0.669 c 1.086,-0.079 1.195,-0.188 1.195,-1.225 l 0,-9.098 0.462,0 0.626,0.836 c 0.603,-0.647 1.443,-0.969 2.395,-0.969 1.99,0 3.364,1.71 3.364,3.705 0,2.101 -1.436,3.706 -3.396,3.706 m -0.244,-6.415 c -0.643,0 -1.276,0.262 -1.82,0.831 l 0,3.596 c 0.477,0.641 1.174,0.992 1.788,0.992 1.308,0 2.184,-0.975 2.184,-2.71 0,-1.773 -0.933,-2.709 -2.152,-2.709" /><path
           inkscape:connector-curvature="0"
           id="path3674"
           style="fill:#000000;fill-opacity:1;fill-rule:nonzero;stroke:none"
           d="m 250.6628,11.212 c -0.429,-0.376 -0.919,-0.588 -1.239,-0.588 -0.419,0 -0.604,0.168 -0.604,0.673 l 0,4.731 2.153,0 0,0.798 -2.153,0 0,2.693 -0.712,0 c -0.202,-2.195 -0.613,-2.619 -1.825,-2.766 l 0,-0.725 1.15,0 0,-4.769 c 0,-1.106 0.629,-1.647 1.697,-1.647 0.739,0 1.441,0.351 2.06,1.022 l -0.527,0.578 z" /></g></g></g></svg>