<svg width="149" height="143" viewBox="0 0 149 143" fill="none" xmlns="http://www.w3.org/2000/svg">
<path d="M48.8125 31C49.5584 31 50.2738 31.3095 50.8012 31.8604C51.3287 32.4113 51.625 33.1584 51.625 33.9375V51.5625C51.6241 53.3857 52.1646 55.1642 53.172 56.6531C54.1795 58.142 55.6042 59.2679 57.25 59.8756V33.9375C57.25 33.1584 57.5463 32.4113 58.0738 31.8604C58.6012 31.3095 59.3166 31 60.0625 31C60.8084 31 61.5238 31.3095 62.0512 31.8604C62.5787 32.4113 62.875 33.1584 62.875 33.9375V59.8756C64.5208 59.2679 65.9455 58.142 66.953 56.6531C67.9604 55.1642 68.5009 53.3857 68.5 51.5625V33.9375C68.5 33.1584 68.7963 32.4113 69.3238 31.8604C69.8512 31.3095 70.5666 31 71.3125 31C72.0584 31 72.7738 31.3095 73.3012 31.8604C73.8287 32.4113 74.125 33.1584 74.125 33.9375V51.5625C74.1257 54.9484 73.0062 58.2306 70.9562 60.8535C68.9061 63.4765 66.0513 65.2791 62.875 65.9562V110.312C62.875 111.092 62.5787 111.839 62.0512 112.39C61.5238 112.941 60.8084 113.25 60.0625 113.25C59.3166 113.25 58.6012 112.941 58.0738 112.39C57.5463 111.839 57.25 111.092 57.25 110.312V65.9562C54.0737 65.2791 51.2189 63.4765 49.1688 60.8535C47.1188 58.2306 45.9993 54.9484 46 51.5625V33.9375C46 33.1584 46.2963 32.4113 46.8238 31.8604C47.3512 31.3095 48.0666 31 48.8125 31ZM88.0694 39.6891C88.9638 38.7491 89.9706 38.0265 91 37.5506V66.25H85.375V45.6875C85.375 43.7076 86.3538 41.4751 88.0694 39.6891ZM91 72.125V110.312C91 111.092 91.2963 111.839 91.8238 112.39C92.3512 112.941 93.0666 113.25 93.8125 113.25C94.5584 113.25 95.2738 112.941 95.8012 112.39C96.3287 111.839 96.625 111.092 96.625 110.312V33.9375C96.625 33.1584 96.3287 32.4113 95.8012 31.8604C95.2738 31.3095 94.5584 31 93.8125 31C90.0831 31 86.5956 32.9152 84.0869 35.5296C81.5838 38.1499 79.75 41.7924 79.75 45.6875V69.1875C79.75 69.9666 80.0463 70.7137 80.5738 71.2646C81.1012 71.8155 81.8166 72.125 82.5625 72.125H91Z" fill="#FEE0BC"/>
<path d="M147 71.5C147 109.807 114.619 141 74.5 141C34.3811 141 2 109.807 2 71.5C2 33.1929 34.3811 2 74.5 2C114.619 2 147 33.1929 147 71.5Z" stroke="#FEE0BC" stroke-width="4"/>
</svg>
