<svg width="149" height="143" viewBox="0 0 149 143" fill="none" xmlns="http://www.w3.org/2000/svg">
<path d="M64.8986 34.95H81.7971M64.8986 39.6V30.3M81.7971 39.6V30.3M48 81.45C48 76.9225 49.7789 72.517 53.0696 68.895L63.2087 57.735C64.3056 56.5277 64.8986 55.0592 64.8986 53.55V21H81.7971V53.55C81.7971 55.0592 82.3901 56.5277 83.487 57.735L93.6261 68.895C96.9168 72.517 98.6957 76.9225 98.6957 81.45V109.35C98.6957 110.583 98.1022 111.766 97.0458 112.638C95.9895 113.51 94.5567 114 93.0628 114H53.6329C52.1389 114 50.7062 113.51 49.6498 112.638C48.5935 111.766 48 110.583 48 109.35V81.45Z" stroke="#FEE0BC" stroke-width="4" stroke-linecap="round" stroke-linejoin="round"/>
<rect x="49.75" y="90.75" width="47.5" height="3.5" fill="#D9D9D9" stroke="#FEE0BC" stroke-width="3.5"/>
<path d="M89.1304 91.5C89.1304 93.4302 87.8938 95.3944 85.4399 96.9508C83.0044 98.4955 79.5479 99.5 75.6521 99.5C71.7562 99.5 68.2997 98.4955 65.8643 96.9508C63.4104 95.3944 62.1738 93.4302 62.1738 91.5C62.1738 89.5698 63.4104 87.6056 65.8643 86.0492C68.2997 84.5045 71.7562 83.5 75.6521 83.5C79.5479 83.5 83.0044 84.5045 85.4399 86.0492C87.8938 87.6056 89.1304 89.5698 89.1304 91.5Z" fill="#243661" stroke="#FEE0BC" stroke-width="3"/>
<path d="M147 71.5C147 109.807 114.619 141 74.5 141C34.3811 141 2 109.807 2 71.5C2 33.1929 34.3811 2 74.5 2C114.619 2 147 33.1929 147 71.5Z" stroke="#FEE0BC" stroke-width="4"/>
</svg>
