<svg width="149" height="143" viewBox="0 0 149 143" fill="none" xmlns="http://www.w3.org/2000/svg">
<path d="M147 71.5C147 109.807 114.619 141 74.5 141C34.3811 141 2 109.807 2 71.5C2 33.1929 34.3811 2 74.5 2C114.619 2 147 33.1929 147 71.5Z" stroke="#FEE0BC" stroke-width="4"/>
<path d="M86.6159 96.684V64.6313M69.1541 96.684V78.3682M44.2085 96.684H104.078V115H44.2085V96.684Z" stroke="#FEE0BC" stroke-width="4" stroke-linecap="round" stroke-linejoin="round"/>
<path d="M44.2086 76.079V96.6842H104.078V76.079C104.078 76.079 116.551 69.2105 116.551 57.7632C116.551 46.3158 106.573 41.7368 94.0997 41.7368C94.0997 37.1579 86.6161 28 74.1433 28C61.6705 28 54.1868 37.1579 54.1868 41.7368C44.2086 41.7368 31.7358 46.3158 31.7358 57.7632C31.7358 69.2105 44.2086 76.079 44.2086 76.079Z" stroke="#FEE0BC" stroke-width="4" stroke-linecap="round" stroke-linejoin="round"/>
</svg>
