<svg width="129" height="97" viewBox="0 0 129 97" fill="none" xmlns="http://www.w3.org/2000/svg">
<path d="M128.022 23.8764L127.862 22.7984L127.695 22.8369C126.555 17.5049 123.928 12.6047 120.119 8.70325C116.31 4.80181 111.474 2.05862 106.171 0.791069C100.868 -0.476483 95.314 -0.216586 90.1524 1.54069C84.9908 3.29797 80.4322 6.4808 77.0041 10.7209C73.576 14.961 71.4185 20.0851 70.7812 25.5003C70.144 30.9155 71.053 36.4005 73.4031 41.3206C75.7533 46.2407 79.4485 50.3948 84.0612 53.3023C88.6738 56.2098 94.0155 57.7518 99.4681 57.75C100.899 57.75 102.272 57.5318 103.639 57.3329C103.196 58.8216 102.741 60.3359 102.009 61.6962C101.278 63.6726 100.135 65.3858 98.9996 67.1119C98.05 68.9792 96.3752 70.2432 95.1432 71.841C93.8535 73.3938 92.0953 74.4269 90.7029 75.7167C89.3361 77.0642 87.5459 77.7379 86.1214 78.6876C84.6327 79.541 83.3366 80.4843 81.9506 80.9334L78.492 82.3579L75.4505 83.622L78.5561 96.0639L82.3869 95.1399C83.6125 94.8319 85.1076 94.4726 86.808 94.0427C88.5469 93.7218 90.4013 92.8427 92.4675 92.0407C94.5016 91.1231 96.8693 90.5135 99.0638 89.0441C101.271 87.6453 103.819 86.4774 106.064 84.6037C108.24 82.6723 110.864 80.9976 112.802 78.5464C114.919 76.2492 117.011 73.8366 118.635 71.0903C120.515 68.4723 121.792 65.5976 123.139 62.755C124.358 59.9124 125.34 57.0057 126.142 54.1823C127.663 48.5228 128.343 43.1457 128.606 38.5449C128.824 33.9377 128.696 30.107 128.426 27.335C128.336 26.1774 128.201 25.0236 128.022 23.8764V23.8764ZM57.4389 23.8764L57.2785 22.7984L57.1116 22.8369C55.9715 17.5049 53.3449 12.6047 49.5358 8.70325C45.7267 4.80181 40.8907 2.05862 35.5876 0.791069C30.2844 -0.476483 24.7307 -0.216586 19.569 1.54069C14.4074 3.29797 9.84883 6.4808 6.42074 10.7209C2.99264 14.961 0.835148 20.0851 0.197897 25.5003C-0.439354 30.9155 0.469679 36.4005 2.81982 41.3206C5.16996 46.2407 8.86514 50.3948 13.4778 53.3023C18.0905 56.2098 23.4322 57.7518 28.8847 57.75C30.3156 57.75 31.6888 57.5318 33.0556 57.3329C32.6128 58.8216 32.1572 60.3359 31.4257 61.6962C30.6942 63.6726 29.5521 65.3858 28.4163 67.1119C27.4666 68.9792 25.7919 70.2432 24.5599 71.841C23.2701 73.3938 21.512 74.4269 20.1196 75.7167C18.7528 77.0642 16.9626 77.7379 15.5381 78.6876C14.0494 79.541 12.7532 80.4843 11.3672 80.9334L7.90864 82.3579C5.97723 83.1472 4.87356 83.6092 4.87356 83.6092L7.97923 96.0511L11.81 95.1271C13.0356 94.8191 14.5306 94.4597 16.2311 94.0298C17.97 93.709 19.8244 92.8299 21.8906 92.0278C23.9246 91.1102 26.2924 90.5007 28.4869 89.0312C30.6942 87.6324 33.2416 86.4646 35.4875 84.5909C37.6627 82.6595 40.2871 80.9848 42.225 78.5336C44.3425 76.2364 46.4343 73.8237 48.0577 71.0774C49.9378 68.4594 51.2147 65.5847 52.5622 62.7422C53.7814 59.8996 54.7631 56.9928 55.5652 54.1695C57.086 48.51 57.7661 43.1328 58.0292 38.5321C58.2474 33.9249 58.1191 30.0942 57.8496 27.3222C57.7538 26.1691 57.6168 25.0197 57.4389 23.8764V23.8764Z" fill="black" fill-opacity="0.23"/>
</svg>
