<?xml version="1.0" encoding="UTF-8" standalone="no"?>
<svg
   xmlns:dc="http://purl.org/dc/elements/1.1/"
   xmlns:cc="http://creativecommons.org/ns#"
   xmlns:rdf="http://www.w3.org/1999/02/22-rdf-syntax-ns#"
   xmlns:svg="http://www.w3.org/2000/svg"
   xmlns="http://www.w3.org/2000/svg"
   viewBox="0 0 500.34668 500.18668"
   height="500.18668"
   width="500.34668"
   xml:space="preserve"
   id="svg2"
   version="1.1"><metadata
     id="metadata8"><rdf:RDF><cc:Work
         rdf:about=""><dc:format>image/svg+xml</dc:format><dc:type
           rdf:resource="http://purl.org/dc/dcmitype/StillImage" /></cc:Work></rdf:RDF></metadata><defs
     id="defs6" /><g
     transform="matrix(1.3333333,0,0,-1.3333333,0,500.18667)"
     id="g10"><g
       transform="scale(0.1)"
       id="g12"><path
         id="path14"
         style="fill:#ed1c24;fill-opacity:1;fill-rule:evenodd;stroke:none"
         d="m 1320.63,2219.63 c 151.4,24.82 147.64,-249.72 127.32,-399.17 -14.4,-105.94 -61.55,-309.53 -199.58,-282.17 -74.38,14.75 -95.7,141.12 -96.35,247.76 -0.93,152.91 32.36,344.61 110.11,409.49 14.31,11.94 35.65,20.34 58.5,24.09" /><path
         id="path16"
         style="fill:#ed1c24;fill-opacity:1;fill-rule:evenodd;stroke:none"
         d="m 2205,2219.63 c 131.11,21.49 143.2,-166.81 137.65,-289.06 -5.04,-110.74 -24.3,-236.2 -65.39,-309.7 -21.71,-38.83 -71.95,-98.2 -144.52,-79.14 -84.07,22.09 -100.57,181.23 -92.91,313.14 7.43,128.21 41.29,262.03 86.02,316.58 16.61,20.25 43.71,42.37 79.15,48.18" /><path
         id="path18"
         style="fill:#ed1c24;fill-opacity:1;fill-rule:evenodd;stroke:none"
         d="m 3237.34,2205.86 c -27.47,-187.1 -56.04,-392.44 -154.85,-509.29 -19.51,-23.04 -57.75,-61.58 -96.36,-58.49 -55.45,4.45 -67.48,94.69 -61.94,172.06 8.71,121.51 67.54,273.82 144.54,344.11 39.98,36.5 96.85,64.26 168.61,51.61" /><path
         id="path20"
         style="fill:#ed1c24;fill-opacity:1;fill-rule:evenodd;stroke:none"
         d="m 1578.72,1173.53 c -27.83,2.01 -63.84,-4.18 -86.03,3.44 -4.64,58.73 94.67,59.23 86.03,-3.44" /><path
         id="path22"
         style="fill:#ed1c24;fill-opacity:1;fill-rule:evenodd;stroke:none"
         d="m 2370.17,1214.82 c 34.41,-32.46 34.55,-168.26 -44.73,-137.64 -32.87,32.97 -35.94,168.59 44.73,137.64" /><path
         id="path24"
         style="fill:#ed1c24;fill-opacity:1;fill-rule:evenodd;stroke:none"
         d="m 2067.36,1259.56 c -11.23,3.34 -31.58,-2.03 -51.62,0 -13.7,-42.5 -18.59,-93.83 -34.41,-134.2 -6.79,47.11 -20.07,87.76 -27.54,134.2 -18.35,0 -36.7,0 -55.05,0 19.58,-75.62 39.4,-151.01 58.5,-227.11 17.2,0 34.41,0 51.61,0 11.37,45.98 19.23,95.47 34.42,137.64 6.89,-49.3 20.57,-91.84 30.96,-137.64 17.21,0 34.42,0 51.62,0 18.37,76.84 37.78,152.64 58.5,227.11 -27.54,-1.77 -39.56,4.44 -55.06,0 -12.32,-42.73 -15.35,-94.76 -34.41,-130.76 -6.07,46.7 -18.67,86.86 -27.52,130.76 z m 574.67,6.88 c -28.54,-4.75 -46.53,-20.02 -58.5,-41.29 -2.19,11.58 4.42,31.95 -3.45,37.85 -9.27,-7.93 -33.19,-1.21 -48.17,-3.44 0,-75.7 0,-151.4 0,-227.11 18.35,0 36.7,0 55.06,0 3.18,75.96 -21.56,179.85 61.93,175.49 -4.01,17.78 8.4,51.99 -6.87,58.5 z m -254.65,-233.99 c 71.38,26.59 83.23,179.32 13.77,220.24 -18.23,10.72 -40.32,13.3 -65.39,10.31 -142.93,-17.05 -100.39,-287.148 51.62,-230.55 z m -935.98,185.82 c -68.31,-127.09 79.77,-275.129 178.93,-141.09 -15.74,6.05 -26.39,17.19 -41.29,24.08 -22.87,-47.36 -105.96,-27.91 -96.35,34.42 45.88,0 91.76,0 137.64,0 26.62,135.47 -135.8,162.83 -178.93,82.59 z m -120.44,30.96 c -31.63,31 -84.58,12.74 -120.44,-10.31 4.69,36.35 -25.93,16.17 -51.62,20.64 0,-75.7 0,-151.4 0,-227.11 19.5,0 39,0 58.5,0 0,55.06 0,110.12 0,165.18 14.77,12.75 30.53,24.51 61.94,20.64 27.41,-39.12 7.87,-125.19 13.76,-185.82 18.36,0 36.71,0 55.06,0 -13.19,72.07 24.91,175.51 -17.2,216.78 z m 402.6,13.77 c -10.47,-4.14 -13.84,-1.72 -30.96,-3.44 0,-14.92 0,-29.82 0,-44.74 9.33,-2.13 27.3,4.37 30.96,-3.44 -1.31,-94.77 -20.86,-216.411 96.36,-182.38 6.92,10.29 1.94,32.48 3.44,48.18 -11.77,-1.5 -30.95,-7.83 -41.29,0 -4.21,30.33 -6.67,97.72 0,137.64 13.76,0 27.52,0 41.29,0 5.49,17.87 -4.24,25.54 3.44,44.74 -15.71,1.49 -37.89,-3.47 -48.18,3.44 0,24.08 0,48.18 0,72.27 -18.35,0 -36.7,0 -55.06,0 0,-24.09 0,-48.19 0,-72.27 z m 997.93,-230.55 c 19.5,0 38.99,0 58.51,0 -2.62,45.04 -1.86,86.72 27.51,99.79 13.75,-35.57 32.52,-66.13 48.19,-99.79 19.49,0 38.99,0 58.49,0 -19.75,51.35 -49.3,92.93 -68.82,144.52 20.01,28.18 44.73,51.62 61.94,82.59 -15.7,2.89 -37.81,-1.68 -61.94,0 -21.42,-24.49 -44.16,-65.93 -65.37,-79.14 0,56.19 0,112.4 0,168.62 -18.36,0 -36.71,0 -55.06,0 -2.22,-89.14 4.37,-233.01 -3.45,-316.59 z m -791.46,1125.24 c -93.15,-90.94 -179.12,-269.73 -158.29,-464.55 29.35,-274.46 422.65,-272.52 612.52,-130.76 132.56,98.98 224.52,286.94 206.47,492.08 -16.05,182.26 -162.94,250.28 -361.32,233.99 -126.46,-10.38 -231.06,-64.06 -299.38,-130.76 z m -770.81,82.59 c -151.76,-77.34 -293.575,-271.77 -275.282,-523.04 11.156,-153.36 111.662,-236.49 258.082,-247.77 321.86,-24.79 566.92,207.3 564.34,547.13 -1.57,207.26 -146.19,291.17 -364.76,271.85 -77.54,-6.86 -134.05,-23.55 -182.38,-48.17 z M 3134.1,2677.3 c 1.65,-20.15 8.18,-35.4 13.77,-51.62 29.7,1.23 78.53,27.77 116.99,20.65 18.28,-120.78 -7.81,-255.69 -20.65,-368.2 -165.42,15.13 -309.18,-44.22 -406.05,-141.09 -95.48,-95.48 -171.47,-222.75 -182.37,-385.41 -10.49,-156.38 56.93,-299.88 209.91,-282.16 157.2,18.2 254.55,179.76 316.58,295.93 9.96,-74.57 -34.41,-228.45 17.21,-292.5 148.65,-9.76 258.69,48.66 364.75,92.91 -1.43,20.37 -12.33,31.27 -13.76,51.62 -39.39,-7.65 -77.89,-34.51 -117.01,-30.97 -31.15,39.14 -11.79,93.44 -6.87,137.65 35.46,319.37 91.61,669.29 113.55,1015.13 103.18,-199.47 184.4,-434.78 206.47,-708.88 24.35,-302.46 -27.84,-575.19 -110.12,-798.34 C 3474.35,792.238 3176.8,457.16 2796.87,240.988 2601.3,129.719 2376.19,47.8203 2108.65,13.8789 1827.64,-21.7813 1533.72,14.1484 1296.54,89.5781 839.469,234.949 503.977,528.371 274.531,898.23 c 231.196,78.739 352.649,250.57 392.289,512.74 38.231,252.79 60.508,539.78 89.469,805.21 48.176,0 96.352,0 144.527,0 6.125,19.12 9.914,40.56 10.321,65.39 -28.766,1.6 -95.469,-1.02 -144.528,0 19.809,178.64 31.536,365.34 147.969,447.34 32.141,-26.53 46.731,-76.92 96.352,-92.91 56.66,-18.25 125.01,3.11 127.32,58.5 3.06,73.21 -95.23,100.66 -158.289,103.24 -151.926,6.21 -265.309,-65.03 -340.668,-154.86 -78.898,-94.03 -110.582,-218.57 -130.762,-361.31 -37.851,0 -75.711,0 -113.558,0 -6.071,-18.02 -9.246,-38.93 -10.325,-61.94 44.633,-8.75 64.086,-2.22 113.555,-3.45 C 462.605,1930.06 435.039,1593.23 391.527,1290.54 371.688,1152.49 345.602,1005.42 236.68,960.191 124.086,1162.82 37.5391,1396.2 9.56641,1679.37 -20.2383,1981.1 21.7227,2272.96 105.918,2505.24 c 162.945,449.53 477.328,804.06 870.602,1018.57 204.98,111.81 444.06,195.08 726.08,220.24 293.97,26.21 587.07,-20.05 822.42,-106.68 454.23,-167.19 788.08,-480.1 1004.81,-880.93 2.78,-0.65 3.43,-3.45 6.88,-3.44 -145.15,-0.61 -286.58,-34.53 -402.61,-75.7" /></g></g></svg>