<svg width="76" height="31" viewBox="0 0 76 31" fill="none" xmlns="http://www.w3.org/2000/svg">
<path d="M19.1274 14.9038C21.8289 15.5337 23.7256 16.2965 24.8174 17.1924C26.3851 18.4661 27.1689 20.1178 27.1689 22.1475C27.1689 24.2891 26.3081 26.0597 24.5864 27.4595C22.4728 29.1532 19.4004 30 15.3691 30H0.902832V29.2231C2.21859 29.2231 3.10742 29.1042 3.56934 28.8662C4.04525 28.6143 4.37419 28.2923 4.55615 27.9004C4.75212 27.5085 4.8501 26.5426 4.8501 25.0029V6.52637C4.8501 4.98665 4.75212 4.02083 4.55615 3.62891C4.37419 3.22298 4.04525 2.90104 3.56934 2.66309C3.09342 2.42513 2.20459 2.30615 0.902832 2.30615V1.5293H14.5503C17.8117 1.5293 20.1213 1.82324 21.479 2.41113C22.8368 2.98503 23.9076 3.85286 24.6914 5.01465C25.4753 6.16243 25.8672 7.38721 25.8672 8.68896C25.8672 10.0607 25.3703 11.2855 24.3765 12.3633C23.3826 13.4271 21.633 14.2739 19.1274 14.9038ZM11.4849 14.3369C13.4725 14.3369 14.9352 14.113 15.873 13.665C16.8249 13.2171 17.5527 12.5872 18.0566 11.7754C18.5605 10.9635 18.8125 9.92773 18.8125 8.66797C18.8125 7.4082 18.5605 6.37939 18.0566 5.58154C17.5667 4.76969 16.8599 4.15381 15.936 3.73389C15.0122 3.31396 13.5285 3.111 11.4849 3.125V14.3369ZM11.4849 15.9746V25.1079L11.4639 26.1577C11.4639 26.9136 11.6528 27.4875 12.0308 27.8794C12.4227 28.2573 12.9966 28.4463 13.7524 28.4463C14.8722 28.4463 15.901 28.2013 16.8389 27.7114C17.7907 27.2075 18.5186 26.4867 19.0225 25.5488C19.5264 24.597 19.7783 23.5402 19.7783 22.3784C19.7783 21.0487 19.4704 19.8589 18.8545 18.8091C18.2386 17.7453 17.3918 17.0034 16.314 16.5835C15.2362 16.1636 13.6265 15.9606 11.4849 15.9746ZM58.3481 0.878418V10.9146H57.5713C56.6335 8.17106 55.2267 6.08545 53.3511 4.65771C51.4754 3.22998 49.4248 2.51611 47.1992 2.51611C45.0716 2.51611 43.3009 3.118 41.8872 4.32178C40.4735 5.51156 39.4727 7.17725 38.8848 9.31885C38.2969 11.4604 38.0029 13.658 38.0029 15.9116C38.0029 18.6411 38.3249 21.0347 38.9688 23.0923C39.6126 25.1499 40.6484 26.6616 42.0762 27.6274C43.5179 28.5933 45.2256 29.0762 47.1992 29.0762C47.8851 29.0762 48.585 29.0062 49.2988 28.8662C50.0267 28.7122 50.7686 28.4953 51.5244 28.2153V22.2944C51.5244 21.1746 51.4474 20.4538 51.2935 20.1318C51.1395 19.7959 50.8175 19.495 50.3276 19.229C49.8517 18.9631 49.2708 18.8301 48.585 18.8301H47.8501V18.0532H61.6865V18.8301C60.6367 18.9001 59.9019 19.047 59.4819 19.271C59.076 19.481 58.7611 19.8379 58.5371 20.3418C58.4111 20.6077 58.3481 21.2586 58.3481 22.2944V28.2153C56.5285 29.0272 54.6318 29.6361 52.6582 30.042C50.6986 30.4619 48.6619 30.6719 46.5483 30.6719C43.8468 30.6719 41.6003 30.3079 39.8086 29.5801C38.0309 28.8382 36.4562 27.8724 35.0845 26.6826C33.7267 25.4788 32.6629 24.1281 31.8931 22.6304C30.9132 20.6987 30.4233 18.5361 30.4233 16.1426C30.4233 11.8594 31.9281 8.24105 34.9375 5.2876C37.9469 2.33415 41.7332 0.857422 46.2964 0.857422C47.7101 0.857422 48.9839 0.969401 50.1177 1.19336C50.7336 1.30534 51.7274 1.62728 53.0991 2.15918C54.4849 2.67708 55.3037 2.93604 55.5557 2.93604C55.9476 2.93604 56.3115 2.79606 56.6475 2.51611C56.9834 2.22217 57.2913 1.67627 57.5713 0.878418H58.3481Z" fill="#F1D2AD"/>
</svg>
