<?xml version="1.0" encoding="UTF-8" standalone="no"?>
<svg
   xmlns:dc="http://purl.org/dc/elements/1.1/"
   xmlns:cc="http://creativecommons.org/ns#"
   xmlns:rdf="http://www.w3.org/1999/02/22-rdf-syntax-ns#"
   xmlns:svg="http://www.w3.org/2000/svg"
   xmlns="http://www.w3.org/2000/svg"
   viewBox="0 0 257.01334 257.01334"
   height="257.01334"
   width="257.01334"
   xml:space="preserve"
   id="svg2"
   version="1.1"><metadata
     id="metadata8"><rdf:RDF><cc:Work
         rdf:about=""><dc:format>image/svg+xml</dc:format><dc:type
           rdf:resource="http://purl.org/dc/dcmitype/StillImage" /></cc:Work></rdf:RDF></metadata><defs
     id="defs6" /><g
     transform="matrix(1.3333333,0,0,-1.3333333,0,257.01333)"
     id="g10"><g
       transform="scale(0.1)"
       id="g12"><path
         id="path14"
         style="fill:#ffffff;fill-opacity:1;fill-rule:evenodd;stroke:none"
         d="M 0,1927.56 H 1927.56 V 0 H 0 v 1927.56" /><path
         id="path16"
         style="fill:#231f20;fill-opacity:1;fill-rule:evenodd;stroke:none"
         d="m 225.273,828.266 c -108.757,0 -196.9253,88.066 -196.9253,196.704 0,108.64 88.1683,196.71 196.9253,196.71 39.723,0 76.7,-11.75 107.637,-31.96 v 0 L 869.398,828.266 H 225.273 v 0" /><path
         id="path18"
         style="fill:#231f20;fill-opacity:1;fill-rule:evenodd;stroke:none"
         d="m 279.699,1270.91 c -91.109,59.13 -117.008,180.9 -57.84,271.97 59.168,91.06 180.996,116.94 272.102,57.8 33.277,-21.59 57.855,-51.55 72.766,-85.31 v 0 L 840.895,890.406 279.699,1270.91 v 0" /><path
         id="path20"
         style="fill:#231f20;fill-opacity:1;fill-rule:evenodd;stroke:none"
         d="m 1701.83,828.066 c 109.01,0 197.38,88.161 197.38,196.904 0,108.74 -88.37,196.91 -197.38,196.91 -39.81,0 -76.87,-11.77 -107.88,-31.99 v 0 L 1056.21,828.066 h 645.62 v 0" /><path
         id="path22"
         style="fill:#231f20;fill-opacity:1;fill-rule:evenodd;stroke:none"
         d="m 1647.41,1270.91 c 91.31,59.2 117.26,181.08 57.97,272.23 -59.31,91.16 -181.4,117.06 -272.71,57.86 -33.35,-21.61 -57.98,-51.6 -72.92,-85.39 v 0 l -274.78,-625.555 562.44,380.855 v 0" /><path
         id="path24"
         style="fill:#231f20;fill-opacity:1;fill-rule:evenodd;stroke:none"
         d="m 1041.79,1641 c -14.05,-10.89 -52.579,-16.81 -44.239,-85.43 v 0 L 1080.81,973.398 1358.43,1608 v 0 c 44.37,99.38 -0.45,215.8 -100.12,260.05 -99.66,44.25 -216.43,-0.45 -260.802,-99.82 -14.891,-33.34 -19.735,-68.61 -15.84,-102.42 v 0 l 52.322,0.09 v 0 c 29.65,-1.46 45.26,-9.34 7.8,-24.9 v 0 0" /><path
         id="path26"
         style="fill:#231f20;fill-opacity:1;fill-rule:evenodd;stroke:none"
         d="m 568.531,1607.84 c -44.285,99.29 0.449,215.62 99.903,259.82 99.461,44.21 215.988,-0.45 260.269,-99.73 16.176,-36.27 20.473,-74.8 14.57,-111.27 v 0 L 845.574,973.801 568.531,1607.84 v 0" /><path
         id="path28"
         style="fill:#231f20;fill-opacity:1;fill-rule:evenodd;stroke:none"
         d="m 1773.96,68.6016 c -31.89,-12.9844 -79.3,-26.1328 -123.23,-26.1328 -200.85,0 -363.68,154.1832 -363.68,344.3712 0,190.187 162.83,344.375 363.68,344.375 43.22,0 90.61,-10.531 123.23,-25.485 v 0 -131.667 0 c -35.39,23.265 -77.68,36.808 -123.23,36.808 -124,0 -224.52,-100.305 -224.52,-224.031 0,-123.723 100.52,-224.027 224.52,-224.027 45.29,0 87.96,13.386 123.23,36.414 v 0 -130.6254 0" /><path
         id="path30"
         style="fill:#231f20;fill-opacity:1;fill-rule:evenodd;stroke:none"
         d="M 565.621,708.734 H 699.133 V 50.7188 L 288.125,426.074 V 65.1211 H 154.613 V 722.961 L 565.621,347.605 v 361.129 0" /><path
         id="path32"
         style="fill:#231f20;fill-opacity:1;fill-rule:evenodd;stroke:none"
         d="m 1146.52,409.063 c 40.76,30.195 76.26,59.023 75.92,135.027 -0.45,100.043 -81.38,165.265 -181.77,165.265 v 0 H 775.727 V 64.4961 h 297.163 v 0 c 105.26,0 185.34,79.8479 185.34,184.7499 0,104.91 -86.73,150.699 -111.71,159.817 v 0 z m -236.559,202.796 99.239,-0.007 v 0 c 46.46,0 84.12,-37.543 84.12,-83.852 0,-46.305 -37.66,-83.844 -84.12,-83.844 v 0 H 909.961 V 611.859 Z M 1030.79,161.293 H 909.977 v 186.523 l 120.813,0.547 v 0 c 51.8,0 93.79,-41.875 93.79,-93.535 0,-51.656 -41.99,-93.535 -93.79,-93.535 v 0 0" /></g></g></svg>