<svg width="130" height="97" viewBox="0 0 130 97" fill="none" xmlns="http://www.w3.org/2000/svg">
<path d="M29.7083 39.1669C28.2774 39.1669 26.9042 39.385 25.5375 39.584C25.9802 38.0953 26.4358 36.581 27.1673 35.2206C27.8988 33.2443 29.041 31.531 30.1767 29.805C31.1264 27.9377 32.8011 26.6736 34.0331 25.0759C35.3229 23.523 37.081 22.49 38.4735 21.2002C39.8402 19.8527 41.6305 19.179 43.055 18.2293C44.5436 17.3759 45.8398 16.4326 47.2258 15.9835L50.6844 14.559L53.7259 13.2949L50.6138 0.859375L46.783 1.78337C45.5575 2.09137 44.0624 2.45071 42.362 2.88062C40.623 3.20146 38.7686 4.08054 36.7025 4.88262C34.662 5.79379 32.3006 6.40979 30.1061 7.87279C27.8988 9.27162 25.3514 10.4395 23.1055 12.3131C20.9303 14.2445 18.3059 15.9193 16.368 18.3769C14.2505 20.674 12.1587 23.0867 10.5353 25.833C8.65521 28.451 7.37829 31.3257 6.03079 34.1683C4.81162 37.0109 3.82987 39.9176 3.02779 42.741C1.50704 48.4005 0.826872 53.7776 0.563789 58.3784C0.345622 62.9855 0.473955 66.8163 0.743455 69.5883C0.839705 70.8973 1.01937 72.1678 1.14771 73.0469L1.30812 74.1249L1.47495 74.0864C2.61623 79.4175 5.24349 84.3167 9.0528 88.217C12.8621 92.1174 17.6978 94.8596 23.0006 96.1265C28.3033 97.3934 33.8563 97.1331 39.0173 95.3758C44.1783 93.6185 48.7363 90.436 52.1641 86.1964C55.5919 81.9569 57.7494 76.8335 58.387 71.4189C59.0247 66.0044 58.1164 60.52 55.7672 55.6001C53.4181 50.6802 49.724 46.5259 45.1125 43.6178C40.5009 40.7097 35.1602 39.1665 29.7083 39.1669ZM100.292 39.1669C98.8607 39.1669 97.4875 39.385 96.1208 39.584C96.5635 38.0953 97.0191 36.581 97.7506 35.2206C98.4821 33.2443 99.6243 31.531 100.76 29.805C101.71 27.9377 103.384 26.6736 104.616 25.0759C105.906 23.523 107.664 22.49 109.057 21.2002C110.424 19.8527 112.214 19.179 113.638 18.2293C115.127 17.3759 116.423 16.4326 117.809 15.9835L121.268 14.559L124.309 13.2949L121.197 0.859375L117.366 1.78337C116.141 2.09137 114.646 2.45071 112.945 2.88062C111.206 3.20146 109.352 4.08054 107.286 4.88262C105.252 5.80021 102.884 6.40979 100.689 7.87921C98.4821 9.27804 95.9347 10.4459 93.6889 12.3195C91.5136 14.251 88.8892 15.9257 86.9514 18.3769C84.8339 20.674 82.742 23.0867 81.1186 25.833C79.2385 28.451 77.9616 31.3257 76.6141 34.1683C75.395 37.0109 74.4132 39.9176 73.6111 42.741C72.0904 48.4005 71.4102 53.7776 71.1471 58.3784C70.929 62.9855 71.0573 66.8163 71.3268 69.5883C71.423 70.8973 71.6027 72.1678 71.731 73.0469L71.8915 74.1249L72.0583 74.0864C73.1996 79.4175 75.8268 84.3167 79.6361 88.217C83.4455 92.1174 88.2812 94.8596 93.5839 96.1265C98.8866 97.3934 104.44 97.1331 109.601 95.3758C114.762 93.6185 119.32 90.436 122.747 86.1964C126.175 81.9569 128.333 76.8335 128.97 71.4189C129.608 66.0044 128.7 60.52 126.351 55.6001C124.001 50.6802 120.307 46.5259 115.696 43.6178C111.084 40.7097 105.744 39.1665 100.292 39.1669Z" fill="black" fill-opacity="0.23"/>
</svg>
