<?xml version="1.0" encoding="UTF-8" standalone="no"?>
<svg
   xmlns:dc="http://purl.org/dc/elements/1.1/"
   xmlns:cc="http://creativecommons.org/ns#"
   xmlns:rdf="http://www.w3.org/1999/02/22-rdf-syntax-ns#"
   xmlns:svg="http://www.w3.org/2000/svg"
   xmlns="http://www.w3.org/2000/svg"
   viewBox="0 0 778.34668 109.30667"
   height="109.30667"
   width="778.34668"
   xml:space="preserve"
   id="svg2"
   version="1.1"><metadata
     id="metadata8"><rdf:RDF><cc:Work
         rdf:about=""><dc:format>image/svg+xml</dc:format><dc:type
           rdf:resource="http://purl.org/dc/dcmitype/StillImage" /></cc:Work></rdf:RDF></metadata><defs
     id="defs6" /><g
     transform="matrix(1.3333333,0,0,-1.3333333,0,109.30667)"
     id="g10"><g
       transform="scale(0.1)"
       id="g12"><path
         id="path14"
         style="fill:#231f20;fill-opacity:1;fill-rule:nonzero;stroke:none"
         d="m 360.859,819.063 c 16.336,-1.442 41.977,-9.485 61.305,-26.411 20.516,-19.929 25.199,-50.175 18.008,-77.668 C 433.773,690.5 426.605,677.773 401.617,660.844 376.355,643.805 345.82,645.238 345.82,645.238 V 539.125 l 51.618,-41.777 -51.633,-41.649 0.015,-144.547 c 0,0 51.723,29.649 83.797,96.036 0,0 1.324,3.613 4.336,10.449 2.86,-17.774 1.223,-53.789 -18.894,-100 C 399.898,282.832 372.336,249.336 337.754,230.254 276.469,196.27 230.52,193.027 181.246,203.242 123.563,215.117 71.168,247.539 35.4063,304.082 10.2773,343.809 -0.96875,390.137 0.0625,439.969 c 2.01953,97.84 74.8008,182.222 158.8045,213.679 10.231,3.836 14.309,6.356 28.809,7.68 -6.684,-4.566 -14.414,-10.445 -23.903,-16.683 -27.054,-17.77 -50.234,-53.18 -60.125,-80.43 l 163.067,72.742 V 408.984 L 135.203,343.086 c 14.996,-20.762 60.516,-52.227 99.461,-56.66 66.25,-7.324 105.117,21.601 105.117,21.601 l -0.011,147.672 -51.34,41.649 51.367,41.656 v 106.234 c -27.996,3.242 -62.02,12.485 -81.906,17.407 -29.243,7.203 -126.754,34.578 -142.078,36.859 -15.309,2.277 -34.2153,1.555 -45.6411,-8.649 -11.4414,-10.324 -18.5274,-28.449 -13.6524,-44.769 2.75,-9.246 9.1094,-14.652 13.9258,-19.93 0,0 -5.6289,0.481 -15.8359,6.602 -18.4141,11.047 -32.4063,32.652 -34.1016,59.297 -2.164,34.933 12.2227,66.386 41.0313,87.511 25.0273,16.086 53.3439,26.411 86.2579,21.727 48.019,-6.84 112.59,-33.969 170.098,-47.773 22.281,-5.407 39.531,-7.207 55.195,1.918 7.301,5.285 20.133,18.847 9.64,36.851 -12.242,21.129 -35.71,20.649 -55.589,24.371 17.105,3.598 20.863,3.598 33.718,2.403 z M 166.969,365.781 v 220.16 L 100.758,556.41 c -0.016,0 -16.8791,-37.812 -13.926,-92.672 2.3282,-42.855 26.289,-94.129 44.699,-115.613 l 35.438,17.656" /><path
         id="path16"
         style="fill:#231f20;fill-opacity:1;fill-rule:nonzero;stroke:none"
         d="m 993.32,596.625 c 0,0 -49.961,-30.254 -83.558,-50.297 -33.59,-19.926 -78.664,-41.894 -78.664,-41.894 V 294.355 l -30.047,-24.14 3.984,-4.668 29.317,23.633 91.886,-83.067 159.702,126.524 -3.78,4.57 -88.265,-69.258 -72.54,67.93 0.012,25.332 145.713,107.211 z m 2.125,-173.461 -74.09,-54.277 v 180.562 l 74.09,-126.285" /><path
         id="path18"
         style="fill:#231f20;fill-opacity:1;fill-rule:nonzero;stroke:none"
         d="m 574.711,127.129 c 20.973,-5.156 57.961,-8.047 102.562,14.297 49.375,24.726 74.211,77.187 73.875,130.957 l 2.09,76.23 0.016,166.504 31.566,24.125 -3.683,4.684 -31.071,-23.41 -71.699,79.707 -91.976,-78.985 V 789.652 L 471.453,700.82 c 5.113,-3.242 21.402,-6.246 21.883,-29.172 V 295.664 l -48.664,-36.133 3.324,-5.039 23.508,17.539 65.445,-60.859 103.031,81.973 -3.734,4.687 -24.226,-19.199 -25.629,25.449 0.246,209.473 30.019,25.57 44.766,-55.578 c 0,0 -0.09,-135.656 0.031,-180.676 -0.336,-48.008 -0.492,-107.91 -25.726,-136.836 -25.219,-29.062 -35.329,-31.347 -61.016,-38.906" /><path
         id="path20"
         style="fill:#231f20;fill-opacity:1;fill-rule:nonzero;stroke:none"
         d="m 1289.75,146.094 c -41.16,4.687 -58.45,29.648 -57.98,49.336 0.3,12.617 11.75,37.343 36.78,40.703 25.01,3.476 50.58,-8.281 72.17,-33.613 l 95.07,105.039 -4.58,4.082 -25.54,-28.575 c -25.94,29.532 -62.75,48.145 -99.42,53.536 v 320.043 l 246.94,-449.809 c 0,0 2.37,-5.156 12.52,-5.156 8.74,0 6.64,7.09 6.64,7.09 l -0.04,452.679 c 20.06,0.84 50.7,11.879 65.57,27.125 47.55,48.856 28.13,102.156 22.91,107.321 -2.91,-23.293 -20.82,-46.7 -50.71,-46.817 -39.22,-0.117 -63.13,28.809 -63.13,28.809 l -95,-108.278 4.53,-4.082 27.22,31.09 c 33.24,-30.605 57.51,-33.488 82.61,-35.168 l -0.02,-262.66 -183.17,332.762 c -16.57,27.488 -41.84,51.617 -81.42,51.98 -45.5,0.239 -78.07,-39.855 -81.96,-74.426 -4.4,-39.011 0.47,-48.015 0.47,-48.015 0,0 6.7,43.453 33.59,43.09 24.15,-0.356 36.72,-22.563 46.41,-39.254 v -96.391 c -24.91,-1.68 -89.76,-4.562 -93.72,-72.027 -0.29,-25.086 15.29,-51.375 28.94,-60.258 17.55,-11.523 31.24,-11.285 31.24,-11.285 0,0 -21.03,11.164 -14.73,33.254 5.63,19.804 46.81,23.047 48.3,14.765 l -0.01,-136.011 c -19.81,0.234 -83.26,-1.934 -111.88,-56.309 -17.25,-32.891 -16.24,-69.629 2.2,-95.547 15.03,-21.133 45.96,-48.144 99.2,-39.023" /><path
         id="path22"
         style="fill:#231f20;fill-opacity:1;fill-rule:nonzero;stroke:none"
         d="m 1811.3,596.625 c 0,0 -49.97,-30.254 -83.57,-50.297 -33.6,-19.926 -78.65,-41.894 -78.65,-41.894 V 294.355 l -30.06,-24.14 3.99,-4.668 29.31,23.633 91.89,-83.067 159.71,126.524 -3.79,4.57 -88.25,-69.258 -72.55,67.93 0.01,25.332 145.72,107.211 z m 2.13,-173.461 -74.1,-54.277 v 180.562 l 74.1,-126.285" /><path
         id="path24"
         style="fill:#231f20;fill-opacity:1;fill-rule:nonzero;stroke:none"
         d="m 2034.53,204.551 -78.3,65.078 -34.39,-24.981 -3.5,4.922 34.99,25.567 v 181.879 c 1.68,74.906 -68.61,56.3 -64.8,135.765 1.68,34.934 35.49,61.344 52.55,70.106 18.27,9.246 38.04,9.246 38.04,9.246 0,0 -32.05,-20.047 -24.27,-48.856 11.99,-44.414 87.93,-48.379 89.36,-107.558 V 309.355 l 56.08,-44.902 14.74,11.524 v 223.414 l -30.24,30.007 77.85,68.907 71.11,-63.024 -27.13,-29.406 V 307.91 l 66.6,-54.98 11.84,7.578 v 238.285 l -30.29,28.324 78,71.305 72.92,-60.258 29.12,25.809 3.94,-4.559 -65.56,-57.621 V 307.559 l -167.75,-103.477 -85.8,67.949 -85.11,-67.48" /><path
         id="path26"
         style="fill:#231f20;fill-opacity:1;fill-rule:nonzero;stroke:none"
         d="m 5466.09,596.625 c 0,0 -49.98,-30.254 -83.56,-50.297 -33.61,-19.926 -78.67,-41.894 -78.67,-41.894 V 294.355 l -30.06,-24.14 4.01,-4.668 29.31,23.633 91.9,-83.067 159.69,126.524 -3.77,4.57 -88.27,-69.258 -72.55,67.93 v 25.332 l 145.74,107.211 z m 2.13,-173.461 -74.1,-54.277 v 180.562 l 74.1,-126.285" /><path
         id="path28"
         style="fill:#231f20;fill-opacity:1;fill-rule:nonzero;stroke:none"
         d="m 4716.33,508.754 3.91,-4.559 30.08,25.926 44.65,-50.535 v -173.59 l -21.68,-19.805 69.57,-78.632 71.38,70.351 -29.33,30.371 v 209.957 l 17.75,14.164 49.36,-57.617 V 301.68 l -18.56,-18.496 65.51,-73.711 70.06,70.117 -25.74,27.012 -0.67,210.796 18.93,15.364 51.46,-56.66 V 303.945 l -16.93,-16.914 72.33,-78.867 97.11,89.668 -4.12,4.434 -23.57,-21.719 -36.17,40.098 v 196.511 l 34.92,26.532 -3.64,4.804 -34.96,-26.535 -66.07,74.066 -94.48,-74.668 -66.18,72.028 -91.25,-71.426 -66.77,71.066 -96.9,-84.269" /><path
         id="path30"
         style="fill:#231f20;fill-opacity:1;fill-rule:nonzero;stroke:none"
         d="m 4518.62,514.156 3.92,-4.562 25.41,21.969 39.75,-47.055 V 286.074 l -28.03,-24.492 3.91,-4.57 29.43,25.097 64.1,-73.945 92.64,82.695 -3.91,4.571 -27.28,-24.004 -38.3,44.179 v 193.989 l 32.3,27.969 -3.9,4.562 -30.69,-26.406 -67.46,78.621 -91.89,-80.184" /><path
         id="path32"
         style="fill:#231f20;fill-opacity:1;fill-rule:nonzero;stroke:none"
         d="m 4545.32,678.492 69.74,63.86 56.72,-62.899 -70.06,-63.625 -56.4,62.664" /><path
         id="path34"
         style="fill:#231f20;fill-opacity:1;fill-rule:nonzero;stroke:none"
         d="m 4451.53,819.063 c 16.35,-1.442 41.99,-9.485 61.31,-26.411 20.52,-19.929 25.19,-50.175 18,-77.668 -6.4,-24.484 -13.55,-37.211 -38.57,-54.14 -25.23,-17.039 -55.78,-15.606 -55.78,-15.606 V 539.125 l 51.64,-41.777 -51.64,-41.649 V 311.152 c 0,0 51.72,29.649 83.81,96.036 0,0 1.33,3.613 4.31,10.449 2.86,-17.774 1.25,-53.789 -18.88,-100 -15.16,-34.805 -42.74,-68.301 -77.31,-87.383 -61.27,-33.984 -107.22,-37.227 -156.48,-27.012 -57.7,11.875 -110.08,44.297 -145.84,100.84 -25.14,39.727 -36.41,86.055 -35.35,135.887 2.01,97.84 74.78,182.222 158.81,213.679 10.21,3.836 14.27,6.356 28.8,7.68 -6.69,-4.566 -14.43,-10.445 -23.9,-16.683 -27.05,-17.77 -50.24,-53.18 -60.14,-80.43 l 163.05,72.742 V 408.984 l -131.49,-65.898 c 15,-20.762 60.51,-52.227 99.48,-56.66 66.23,-7.324 105.09,21.601 105.09,21.601 v 147.672 l -51.32,41.649 51.32,41.656 v 106.234 c -27.98,3.242 -61.99,12.485 -81.87,17.407 -29.26,7.203 -126.78,34.578 -142.09,36.859 -15.31,2.277 -34.22,1.555 -45.65,-8.649 -11.44,-10.324 -18.51,-28.449 -13.65,-44.769 2.76,-9.246 9.1,-14.652 13.93,-19.93 0,0 -5.65,0.481 -15.84,6.602 -18.42,11.047 -32.42,32.652 -34.1,59.297 -2.15,34.933 12.22,66.386 41.03,87.511 25.04,16.086 53.34,26.411 86.27,21.727 48.01,-6.84 112.58,-33.969 170.1,-47.773 22.28,-5.407 39.53,-7.207 55.17,1.918 7.31,5.285 20.14,18.847 9.65,36.851 -12.24,21.129 -35.7,20.649 -55.58,24.371 17.11,3.598 20.86,3.598 33.71,2.403 z M 4257.66,365.781 v 220.16 l -66.21,-29.531 c 0,0 -16.89,-37.812 -13.95,-92.672 2.33,-42.855 26.29,-94.129 44.71,-115.613 l 35.45,17.656" /><path
         id="path36"
         style="fill:#231f20;fill-opacity:1;fill-rule:nonzero;stroke:none"
         d="m 5643.8,178.984 c -10.58,-3.105 -56.58,8.047 -67.61,55.704 -10.75,46.464 21.5,77.91 70.23,127.363 l -57.52,52.586 v 100.359 c 0,0 42.27,21.129 75.39,41.777 33.13,20.766 67.01,43.211 67.01,43.211 0,0 24.71,-31.211 52.64,-28.691 43.73,3.844 41.7,38.297 40.43,46.457 7.46,-13.32 27.44,-52.937 -49.39,-141.523 l 62.57,-50.539 V 295.313 c 0,0 -72.69,-37.813 -141.44,-87.989 0,0 -38.38,48.008 -71.7,25.078 -22.5,-15.468 -12.21,-41.64 19.39,-53.418 z m -54.08,100.489 c 0,0 33.03,54.609 89.77,42.851 54.43,-11.289 73.32,-68.789 73.32,-68.789 v 132.403 l -37.97,33.027 c -41.7,-41.914 -115.92,-102.52 -125.12,-139.492 z m 84.22,276.578 V 451.734 l 34.73,-30.25 c 0,0 75.43,60.379 102.81,116.325 0,0 -33.89,-45.977 -79.53,-31.934 -38.2,11.641 -58.01,50.176 -58.01,50.176" /><path
         id="path38"
         style="fill:#231f20;fill-opacity:1;fill-rule:nonzero;stroke:none"
         d="m 3295.28,509.957 28.18,25.926 4.04,-4.559 -27.44,-25.449 v -207.32 c 0,0 -52.13,-27.617 -88.51,-48.145 -36.35,-20.527 -75.2,-44.648 -75.2,-44.648 l -95.64,80.547 -25.29,-21.973 -4.09,4.57 26.59,23.164 v 222.926 h 0.35 c 0,0 45.11,20.41 83.16,41.895 34.04,19.207 72.13,41.414 72.13,41.414 z m -166.62,-182.711 80.82,-73.105 v 223.765 l -80.82,74.785 V 327.246" /><path
         id="path40"
         style="fill:#231f20;fill-opacity:1;fill-rule:nonzero;stroke:none"
         d="m 3483.33,530.961 60.74,62.062 c 0,0 8.36,-7.32 16.17,-11.164 4.45,-2.156 22.83,-11.644 39.71,-2.402 9.14,5.047 10.45,6.363 20.47,15.852 2.05,-48.262 -21.12,-82.235 -50.02,-96.278 -11.84,-5.761 -46.39,-16.804 -82.54,27.254 V 303.242 l 38.45,-33.984 32.09,26.543 3.71,-4.688 -100.52,-83.906 -76.49,69.609 -27.52,-25.918 -4.51,4.805 41.92,37.813 0.35,192.554 -32.15,42.61 -27.64,-24.367 -4,4.441 97.38,87.512 54.4,-65.305" /><path
         id="path42"
         style="fill:#231f20;fill-opacity:1;fill-rule:nonzero;stroke:none"
         d="m 3739.46,438.051 112.32,163.375 c 0,0 14.81,-17.524 40.61,-24.371 35.08,-9.121 65.7,24.73 65.7,24.73 -5.86,-43.695 -28.01,-93.269 -73.75,-100.832 -40.29,-6.719 -77.77,24.61 -77.77,24.61 l -7.29,-11.286 155.94,-235.527 31.19,27.363 4.02,-4.55 -107.01,-93.516 -143.96,230.004" /><path
         id="path44"
         style="fill:#231f20;fill-opacity:1;fill-rule:nonzero;stroke:none"
         d="m 3646.67,656.168 c 0,35.293 -14.46,57.016 -33.34,55.457 l 122.51,86.07 V 310.547 h 0.02 l 32.35,-34.082 24.51,21.25 3.85,-4.57 -98.73,-86.192 -66.88,62.793 -26.78,-23.535 -4.23,4.57 46.72,40.684 v 364.703" /><path
         id="path46"
         style="fill:#231f20;fill-opacity:1;fill-rule:nonzero;stroke:none"
         d="m 2622.43,664.211 c -0.01,32.887 -13.37,51.254 -35.01,51.734 -31.14,0.719 -38.52,-43.215 -38.52,-43.215 0,0 -5.67,33.852 22.66,64.583 15.93,17.164 45.65,41.296 92.12,30.128 47.99,-11.64 61.62,-48.851 61.62,-81.742 v -453.16 c 0,0 18.13,-2.168 30.57,-4.941 14.43,-2.989 28.1,-6.836 28.1,-6.836 v 546.441 h 5.97 V 693.5 l 98.39,79.223 72.09,-64.098 33.61,29.047 3.83,-4.563 -35.14,-30.25 V 281.504 c -1.74,-27.481 -6.17,-55.449 -32.13,-71.543 -57.9,-34.336 -127.75,5.273 -189.96,14.277 -46.19,6.856 -118.69,15.606 -136.89,-26.758 -5.94,-13.925 -5.53,-35.41 15.43,-49.453 42.04,-28.105 229.24,47.168 293.45,17.286 58.54,-27.247 58.32,-70.3521 49.28,-100.0005 C 2946.68,9.72656 2876.51,0 2876.51,0 c 0,0 34.32,19.9414 24.54,52.9492 -4.96,16.6797 -16.29,21.3672 -53.03,17.2852 -80.24,-9.1211 -176.15,-48.0078 -240.6,-21.0156 -33.22,13.8085 -56.71,55.3512 -54.43,96.1522 1.65,58.711 69.44,81.875 69.44,81.875 l -0.02,217.168 c -1.94,8.641 -38.11,6.363 -46.01,-9.605 -12.03,-24.141 14.94,-35.18 14.94,-35.18 0,0 -22.36,-3.359 -41.1,18.25 -9.12,10.566 -28.18,47.543 -3.4,81.754 20.37,28.207 44.79,33.129 75.59,36.492 z m 167.51,-445.129 c 0,0 28.55,-7.559 49.36,9.492 23.13,19.082 20.7,45.84 20.7,45.84 v 168.797 c 0,0 -13.41,17.285 -34.72,17.285 -21.3,0 -35.34,-17.883 -35.34,-17.883 z m 70.06,443.086 -47.26,41.531 -22.8,-18 V 529.281 c 0,0 14.04,-17.761 35.34,-17.761 21.31,0 34.72,17.039 34.72,17.039 z m 0,-142.969 c 0,0 -13.53,-15.367 -34.83,-15.367 -21.3,0 -35.23,15.484 -35.23,15.484 v -66.742 c 0,0 13.93,15.489 35.23,15.489 21.3,0 34.83,-14.645 34.83,-14.645 v 65.781" /></g></g></svg>